<svg width="29" height="29" viewBox="0 0 29 29" fill="none" xmlns="http://www.w3.org/2000/svg">
<path d="M16.4646 28.5267C15.9338 28.5267 15.403 28.394 15.0048 27.9959L13.6778 26.5361C13.1469 26.0052 13.1469 25.209 13.6778 24.6782C14.2086 24.1473 15.0048 24.1473 15.5357 24.6782L16.4646 25.6071L16.9955 25.0763C17.1282 24.9436 17.1282 24.8109 17.1282 24.6782L17.9244 19.2371C18.0571 18.7063 18.3226 18.1754 18.7207 17.7773L22.0384 14.4596C24.2944 12.2036 25.4888 9.15127 25.4888 5.96627V3.44482H22.9673C19.7823 3.44482 16.7301 4.63919 14.474 6.89523L11.1563 10.2129C10.7582 10.6111 10.2273 10.8765 9.69652 11.0092L4.12276 11.8054C3.99006 11.8054 3.85735 11.9381 3.72464 11.9381L3.32651 12.469L4.25547 13.3979C4.78631 13.9288 4.78631 14.725 4.25547 15.2559C3.72464 15.7867 2.92839 15.7867 2.39756 15.2559L0.937764 13.7961C0.141514 12.9998 0.141514 11.8054 0.937764 11.0092L1.86672 10.0802C2.39756 9.5494 3.0611 9.28398 3.85735 9.15127L9.29839 8.35502L12.6161 5.03732C15.403 2.25044 18.9861 0.790649 22.9673 0.790649H26.8159C27.6121 0.790649 28.143 1.32148 28.143 2.11773V5.96627C28.143 9.81482 26.6832 13.5306 23.8963 16.3175L20.5786 19.6352L19.7824 25.0763C19.6496 25.7398 19.3842 26.4034 18.8534 26.9342L17.9244 27.8631C17.5263 28.2613 16.9955 28.5267 16.4646 28.5267ZM9.96193 24.6782L11.8198 22.8202C12.3507 22.2894 12.3507 21.4931 11.8198 20.9623C11.289 20.4315 10.4928 20.4315 9.96193 20.9623L8.10401 22.8202C7.57318 23.3511 7.57318 24.1473 8.10401 24.6782C8.36943 24.9436 8.76756 25.0763 9.03297 25.0763C9.29839 25.0763 9.69652 24.9436 9.96193 24.6782ZM4.25547 22.8202L7.97131 19.1044C8.50214 18.5736 8.50214 17.7773 7.97131 17.2465C7.44047 16.7156 6.64422 16.7156 6.11339 17.2465L2.39756 20.9623C1.86672 21.4931 1.86672 22.2894 2.39756 22.8202C2.66297 23.0856 3.0611 23.2184 3.32651 23.2184C3.59193 23.2184 3.99006 23.0856 4.25547 22.8202ZM21.1094 13.3979C22.7019 11.8054 22.7019 9.28398 21.1094 7.82419C20.5786 7.29336 19.7823 7.29336 19.2515 7.82419C18.7207 8.35502 18.7207 9.15127 19.2515 9.68211C19.7823 10.2129 19.7823 11.0092 19.2515 11.54C18.7207 12.0709 17.9244 12.0709 17.3936 11.54C16.8628 11.0092 16.8628 10.2129 17.3936 9.68211C17.9244 9.15127 17.9244 8.35502 17.3936 7.82419C16.8628 7.29336 16.0665 7.29336 15.5357 7.82419C13.9432 9.41669 13.9432 11.9381 15.5357 13.3979C16.3319 14.1942 17.2609 14.5923 18.3226 14.5923C19.3842 14.5923 20.4459 14.1942 21.1094 13.3979Z" fill="white"/>
</svg>
